<svg id="Layer_1" data-name="Layer 1" xmlns="http://www.w3.org/2000/svg" viewBox="0 0 20 20"><defs><style>.cls-1{fill:#122e50;}.cls-2{fill:#fff;}.cls-3{fill:#231f20;}.cls-4,.cls-8{fill:#0075bf;}.cls-5{fill:#f7b16e;}.cls-6{fill:#f15d2f;}.cls-7{fill:#f0514e;}.cls-8{fill-rule:evenodd;}.cls-9{fill:#005aaa;}</style></defs><title>Artboard 3</title><circle class="cls-1" cx="10" cy="10" r="9.58"/><path class="cls-2" d="M1.13,10A8.87,8.87,0,1,1,10,18.87,8.87,8.87,0,0,1,1.13,10"/><path class="cls-3" d="M10,19a9,9,0,1,1,9-9A9,9,0,0,1,10,19ZM10,1.27A8.73,8.73,0,1,0,18.73,10,8.73,8.73,0,0,0,10,1.27Z"/><path class="cls-4" d="M3.11,10A6.85,6.85,0,1,1,10,16.84,6.85,6.85,0,0,1,3.11,10"/><path class="cls-3" d="M10,17a7,7,0,1,1,7-7A7,7,0,0,1,10,17Zm0-13.7A6.72,6.72,0,1,0,16.68,10,6.72,6.72,0,0,0,10,3.28Z"/><path class="cls-5" d="M7.05,10.07h5.86l-.31.37,0,4.38-.28.55-1.35.27-.6.14-.29.3,0,.11-.2-.31-.4-.17-.6-.11-.64-.09L7.6,15.3,7.38,15l-.09-.71,0-2.73,0-1.06s-.41-.41-.25-.41"/><path class="cls-5" d="M10,16.23l-.22-.33-.39-.17-.6-.11-.64-.09-.54-.21L7.36,15l-.09-.71,0-2.74,0-1C7.2,10.4,7,10.16,7,10.08s0,0,0,0H13l-.33.4,0,4.38-.29.56-1.36.27-.59.14-.28.3Zm-2.36-1,.53.21.63.09.61.1.4.19.19.27,0-.07.3-.31h0l.59-.14,1.34-.27.28-.54.05-4.38.28-.34H7s.11.2.28.37h0l0,1.07,0,2.73.1.71Z"/><rect class="cls-6" x="7.33" y="11.87" width="5.22" height="1.84"/><path class="cls-7" d="M12.57,13.74H7.3V11.85h5.27Zm-5.22-.05h5.18v-1.8H7.35Z"/><path class="cls-3" d="M10.56,13.33H9l1.06-.73h0l.46-.31.08.11-.46.31.33.48h.1Zm-.72-.14h.46l-.24-.34Zm-.41,0h.26l.19-.31Zm1.7-1.62H9V11.5c0-.25,0-.25,0-.27s0,0,.1,0c.25,0,.31,0,.32,0a.15.15,0,0,0,0-.19.66.66,0,0,0-.37-.07H9a.58.58,0,0,1-.58-.4l0-.08h3v.34h-.07c-.32,0-.46.07-.46.23s.09.23.23.26h.05v.3Zm-2-.13H11v0h0a.33.33,0,0,1-.29-.38c0-.32.35-.36.54-.36v-.07H8.58a.55.55,0,0,0,.43.2h.06a.69.69,0,0,1,.46.11.27.27,0,0,1,0,.36c0,.07-.19.08-.4.08Z"/><path class="cls-3" d="M12.61,13.82H7.38v-.18h5.23Zm0-1.87H7.36v-.17h5.23Z"/><path class="cls-3" d="M10,16.4l-.09-.2c-.21-.43-.54-.45-1.07-.49l-.57-.05c-1-.14-1-.54-1-1.14v-4c0-.06-.08-.18-.31-.34L6.6,10h6.74l-.34.21c-.3.18-.3.29-.3.34v4a1,1,0,0,1-.76,1.1,5.63,5.63,0,0,1-.61.08c-.54.05-1.05.09-1.26.51ZM7.27,10.2a.47.47,0,0,1,.16.32v4c0,.5,0,.8.83.92l.55.05c.49,0,.89.06,1.16.45a1.87,1.87,0,0,1,1.34-.46,4.78,4.78,0,0,0,.58-.08c.39-.08.59-.38.59-.88v-4a.46.46,0,0,1,.14-.33Z"/><path class="cls-3" d="M8.18,12.69a.13.13,0,0,1,.13-.14.14.14,0,0,1,.14.14.14.14,0,0,1-.14.14.14.14,0,0,1-.13-.14"/><path class="cls-3" d="M8.31,12.85a.16.16,0,0,1,0-.32.16.16,0,0,1,0,.32Zm0-.27a.11.11,0,0,0,0,.22.11.11,0,1,0,0-.22Z"/><path class="cls-3" d="M8.31,13.28a.59.59,0,1,1,.59-.59A.58.58,0,0,1,8.31,13.28ZM8,13a.53.53,0,0,0,.21.11c.16-.07.08-.32.08-.32l.12-.05a.44.44,0,0,1,0,.37.45.45,0,0,0,.28-.2c0-.16-.25-.17-.26-.17v-.13h0l-.1-.1a.47.47,0,0,1,.31-.14.47.47,0,0,0-.32-.16c-.13.1,0,.28,0,.29l-.11.07a.44.44,0,0,1-.05-.33.46.46,0,0,0-.2.14c0,.17.26.2.26.2l0,.14a.44.44,0,0,1-.32-.18.5.5,0,0,0,0,.12.58.58,0,0,0,0,.19c.16.08.28-.11.28-.12l.12.07A.46.46,0,0,1,8,13Zm.44-.39a.42.42,0,0,1,.31.14.28.28,0,0,0,0-.09.59.59,0,0,0,0-.13C8.61,12.48,8.46,12.62,8.45,12.64Z"/><path class="cls-3" d="M7.75,13.28a.11.11,0,0,1,.1-.11.11.11,0,0,1,.11.11.11.11,0,0,1-.11.1.11.11,0,0,1-.1-.1"/><path class="cls-3" d="M8.66,13.28a.11.11,0,0,1,.11-.11.1.1,0,0,1,.1.11.09.09,0,0,1-.1.1.1.1,0,0,1-.11-.1"/><path class="cls-3" d="M11.54,12.78a.1.1,0,0,1,.11-.1.09.09,0,0,1,.1.1.1.1,0,0,1-.1.11.11.11,0,0,1-.11-.11"/><path class="cls-3" d="M10.82,12.47a.11.11,0,0,1,.11-.1.11.11,0,0,1,.1.1.11.11,0,0,1-.1.11.11.11,0,0,1-.11-.11"/><path class="cls-3" d="M10.75,13a.1.1,0,0,1,.11-.1.1.1,0,0,1,.1.1.11.11,0,0,1-.1.11.11.11,0,0,1-.11-.11"/><path class="cls-3" d="M10.08,15.38a.13.13,0,0,1-.09-.05.89.89,0,0,0-.26-.17,1.47,1.47,0,0,0-.33-.1c-.12,0-.24-.06-.23-.2h0a.09.09,0,0,1,0,0l-.08-.13c-.13-.21-.34-.57-.53-.59a.76.76,0,0,0-.46.13L8,14.11A.87.87,0,0,1,8.59,14c.17,0,.32.2.45.38a1.94,1.94,0,0,1,.52-.2,2.59,2.59,0,0,1,1,0h0l1.18.18,0,.13-.25,0v.18h-.14v-.2l-.79-.12h-.11v.19h-.14v-.21l-.23,0h0a.4.4,0,0,0-.38.33c.07,0,.11,0,.13.08a1.37,1.37,0,0,0,.49.49l.14.08-.22.06a.4.4,0,0,0-.15.07Zm-.78-.51v0l.13,0a1.53,1.53,0,0,1,.36.11,1,1,0,0,1,.29.19h0l.07,0a1.36,1.36,0,0,1-.42-.46.55.55,0,0,0-.29,0A.38.38,0,0,0,9.3,14.87Zm-.18-.42c0,.06.07.11.1.16l.06.1a1.38,1.38,0,0,1,.3-.11h0a.69.69,0,0,1,.2-.36.63.63,0,0,0-.19,0A1.71,1.71,0,0,0,9.12,14.45Zm3-1.12H11v-.74l1.12.62Zm-1-.13h.7l-.7-.39Z"/><path class="cls-3" d="M11.68,14.44a.11.11,0,1,1,.11.11.11.11,0,0,1-.11-.11"/><path class="cls-3" d="M11.79,14.56a.12.12,0,1,1,.12-.12A.12.12,0,0,1,11.79,14.56Zm0-.22a.1.1,0,0,0-.1.1.09.09,0,0,0,.1.1.1.1,0,0,0,.1-.1A.11.11,0,0,0,11.79,14.34Z"/><path class="cls-3" d="M10.4,14.39c.15.13.22.21.24.29s-.34,0-.36-.14.09-.18.12-.15"/><path class="cls-3" d="M10.59,14.74l-.09,0c-.09,0-.22-.11-.23-.17a.22.22,0,0,1,.09-.17s0,0,.05,0h0a.8.8,0,0,1,.24.29.12.12,0,0,1,0,.05Zm-.2-.34h0s-.09.1-.08.14.11.12.22.16.1,0,.11,0a0,0,0,0,0,0,0c0-.07-.09-.15-.24-.28Z"/><path class="cls-3" d="M11.31,14.75a.14.14,0,0,1,.14-.14.13.13,0,0,1,.13.14.14.14,0,0,1-.13.14.14.14,0,0,1-.14-.14"/><path class="cls-3" d="M11.45,14.9a.15.15,0,1,1,0-.3.15.15,0,0,1,0,.3Zm0-.28a.13.13,0,0,0-.13.13.12.12,0,0,0,.13.12.12.12,0,0,0,.12-.12A.12.12,0,0,0,11.45,14.62Z"/><path class="cls-5" d="M6.86,4.94c0-.24,2,.68,2.22,1.09s0,.32,0,.57a.3.3,0,0,0,.27.32.32.32,0,0,0,.33-.19c.06-.18-.05-.51-.26-.41s.06-.3.24-.18.1-.09.29-.1.18.31.17.43.09.52.34.42,0-.42.16-.76A4.07,4.07,0,0,1,13,4.91c.26,0,.1.17,0,.27s.06.29-.26.61c-.06.06.16.25-.47.73-.08.07.13.43-.56.63-.15,0,.09.21-.12.44s.16.36-.16.47c-.1,0,.11.32-.24.37-.09,0-.09.47-.51.14-.13-.1.08.3,0,.27a.26.26,0,0,1-.13-.07.51.51,0,0,0,.12.41c.1.08.08.46-.22.26,0,0,0,.31-.25.14,0,0-.14.26-.33,0,0,0-.22.19-.25-.1,0-.05-.11.15-.24,0s.06-.31.09-.35,0-.23,0-.32-.07.14-.16,0,.14-.35,0-.3c-.39.2-.34-.08-.4-.09-.35,0-.14-.31-.24-.31-.43,0-.16-.44-.25-.48-.31-.12,0-.39-.11-.42-.69-.28-.37-.49-.53-.58-.65-.38-.31-.58-.4-.68S6.9,5.57,7,5.26c-.07-.14-.21-.09-.15-.32"/><path class="cls-3" d="M9.94,9.78h0a.28.28,0,0,1-.17-.11.2.2,0,0,1-.2,0,.24.24,0,0,1-.08-.09.22.22,0,0,1-.25-.07c-.11-.12-.09-.27.07-.45h0s0-.06,0-.13h0s-.09,0-.11,0a.18.18,0,0,1,0-.21.34.34,0,0,1-.2,0,.24.24,0,0,1-.14-.14.27.27,0,0,1-.25-.32.36.36,0,0,1-.22-.11.43.43,0,0,1-.05-.34v0a.3.3,0,0,1-.13-.42h0c-.43-.19-.47-.36-.47-.52s0,0,0,0c-.49-.28-.48-.49-.44-.67a.23.23,0,0,1,0,0L7.18,6c-.17-.19-.35-.38-.27-.68l0,0a.25.25,0,0,1-.1-.31h0a.15.15,0,0,1,.13-.11A4.83,4.83,0,0,1,9.16,6a.45.45,0,0,1,.08.45.4.4,0,0,0,0,.17.21.21,0,0,0,.18.23.24.24,0,0,0,.25-.13.32.32,0,0,0-.06-.29.06.06,0,0,0-.08,0,.13.13,0,0,1-.15,0c0-.08,0-.18.07-.25a.25.25,0,0,1,.33-.07h0A.28.28,0,0,1,10,6a.24.24,0,0,1,.21.08.47.47,0,0,1,.06.41v0a.36.36,0,0,0,.09.32.11.11,0,0,0,.13,0c.11,0,.11-.1.08-.27a.75.75,0,0,1,0-.44A4.17,4.17,0,0,1,13,4.82c.12,0,.2,0,.23.09s-.1.26-.18.33v0a.77.77,0,0,1-.25.55v0c0,.18,0,.39-.49.73v0c0,.15,0,.44-.58.61v0a.39.39,0,0,1-.09.4s0,.06,0,.13a.27.27,0,0,1-.17.36v0a.29.29,0,0,1-.26.35l0,0a.35.35,0,0,1-.21.22.36.36,0,0,1-.24,0,.17.17,0,0,1,0,.17.11.11,0,0,1-.11,0h0a.28.28,0,0,0,.09.19.33.33,0,0,1,0,.39.2.2,0,0,1-.25.07.18.18,0,0,1-.1.13.21.21,0,0,1-.2,0A.27.27,0,0,1,9.94,9.78Zm-.16-.3a.09.09,0,0,1,.08,0c0,.06.07.08.08.08l.06,0a.12.12,0,0,1,.16-.05.19.19,0,0,0,.09,0s0,0,0-.07a.11.11,0,0,1,.06-.11l0,0,.05,0s.1.05.11,0a.14.14,0,0,0,0-.15.6.6,0,0,1-.16-.49l0-.22.11.16c0-.1,0-.18,0-.22s.07,0,.14,0,.19.1.21.1.07-.07.1-.13.06-.12.13-.13.14-.07.13-.16,0-.17.09-.2.11-.06.09-.16a.29.29,0,0,1,0-.29.23.23,0,0,0,0-.24c0-.06,0-.19.11-.23.45-.13.46-.32.46-.44a.27.27,0,0,1,.06-.17c.45-.34.44-.51.43-.59a.19.19,0,0,1,0-.14.65.65,0,0,0,.21-.45c0-.06,0-.12.06-.16L13,5h0a4.11,4.11,0,0,0-2.24,1.16.63.63,0,0,0,0,.36c0,.15,0,.35-.2.45a.29.29,0,0,1-.3,0,.58.58,0,0,1-.16-.49v0c0-.07,0-.22,0-.27s0,0-.07,0-.06,0-.09,0-.1.12-.24,0H9.58l.11,0a.49.49,0,0,1,.12.49A.42.42,0,0,1,9.39,7,.4.4,0,0,1,9,6.6a.68.68,0,0,1,0-.23c0-.07,0-.12-.06-.3A5.11,5.11,0,0,0,6.94,5c0,.06,0,.07,0,.1a.26.26,0,0,1,.12.13v.07c-.07.21,0,.34.22.54l.09.09a.22.22,0,0,1,0,.19c0,.1,0,.24.36.47a.21.21,0,0,1,.09.2c0,.09,0,.21.42.38.11,0,.07.16.05.21s-.06.16.07.21.07.14.06.22,0,.15,0,.2.09,0,.14.05a.09.09,0,0,1,.08,0,.18.18,0,0,1,0,.14c0,.08,0,.12.12.13a.14.14,0,0,1,.11.1s0,0,0,.06a.39.39,0,0,0,.21-.06.11.11,0,0,1,.13,0c.05,0,0,.12,0,.19l0,0h0c.05-.06.09-.07.14,0s0,.1,0,.18,0,0,0,.07a.31.31,0,0,1,0,.27l0,0c-.11.12-.11.17-.07.21s.05,0,.09,0a.11.11,0,0,1,.12,0l0,0v.06a.12.12,0,0,0,0,.08s0,0,0,0A.19.19,0,0,1,9.78,9.48Zm-.93-.94Zm2.55-.39Z"/><path class="cls-3" d="M10,9.74c-.19,0-.19-.22-.19-.39s0-.15,0-.22a.54.54,0,0,1-.22.44l-.08-.16c.1-.05.12-.23.13-.31a.56.56,0,0,1,0-.07l.15,0A.23.23,0,0,0,9.67,9l.12-.13a.69.69,0,0,1,.14.52.67.67,0,0,0,0,.23s0-.19,0-.29,0-.51.23-.51V9s0,.05,0,.11l.15,0s0,0,0,.07,0,.26.13.31l-.08.16a.52.52,0,0,1-.22-.41.53.53,0,0,1,0,.14C10.14,9.51,10.13,9.74,10,9.74ZM8.79,8.51l0-.18s.11-.07.2-.22a.66.66,0,0,0,.11-.38l0,0c-.08.2-.29.5-.49.53l0-.18s.12-.07.22-.19a.78.78,0,0,0,.16-.33h0l0-.07-.13.11a.72.72,0,0,1-.48.14l.05-.17a.46.46,0,0,0,.32-.12.38.38,0,0,0,.16-.15l-.16-.18a.66.66,0,0,1-.48.23V7.13a.54.54,0,0,0,.36-.19.6.6,0,0,1-.09-.15,1.62,1.62,0,0,1-.82-.09l.07-.16a1.64,1.64,0,0,0,.67.09.86.86,0,0,1-.07-.21,1,1,0,0,1-.47-.08.87.87,0,0,1-.22-.17A.53.53,0,0,0,7.27,6V5.8A.72.72,0,0,1,7.74,6a.94.94,0,0,0,.16.14.94.94,0,0,0,.37.07,1.62,1.62,0,0,1,0-.21.76.76,0,0,1-.52-.17,1,1,0,0,1-.18-.18c-.14-.18-.34-.42-.53-.38l0-.17c.3-.08.53.22.71.43a1.4,1.4,0,0,0,.14.16.5.5,0,0,0,.48.11l0,0,.09.06V6a1.33,1.33,0,0,0,.34,1A2,2,0,0,1,9,6.07l.16.08a1.22,1.22,0,0,0,0,1.45h0l.08.07a1.14,1.14,0,0,0,1.36-.06c.35-.33.32-.85-.07-1.46l.15-.1a2.06,2.06,0,0,1,.34.91,1.49,1.49,0,0,0,.39-1.06.1.1,0,0,1,0-.1l0,0,0,0s.22,0,.48-.17l.14-.14c.16-.19.41-.47.7-.4l0,.17c-.19,0-.39.18-.53.35l-.16.17a.92.92,0,0,1-.54.2,1.1,1.1,0,0,1,0,.18.35.35,0,0,0,.28-.07s.51-.49.8-.4l-.05.17c-.12,0-.48.21-.62.35a.56.56,0,0,1-.44.13c0,.07,0,.14-.07.22a1.19,1.19,0,0,0,.68-.15l.12.13a1.28,1.28,0,0,1-.87.18,1.27,1.27,0,0,1-.18.27c.18,0,.37.09.42.21l-.16.07a.6.6,0,0,0-.4-.1l-.08.07v0a.57.57,0,0,1,.24.09.63.63,0,0,1,.3.28l-.18,0s-.08-.11-.2-.18A.45.45,0,0,0,11,7.47l0,.07a1.25,1.25,0,0,1,.47.52l-.17,0a1.17,1.17,0,0,0-.4-.43.17.17,0,0,1-.06.06l-.07.06h0c0,.08.24.49.48.53l0,.18a.91.91,0,0,1-.49-.39,1.35,1.35,0,0,1-.12-.22,1.33,1.33,0,0,1-1.31,0s0,0,0,.06C9.17,8.15,9,8.49,8.79,8.51Zm1.92-.7h0Zm-.64.59H9.79V8.22h.28ZM10,7.66a.86.86,0,0,1-.41-.1.71.71,0,0,1-.35-.68h.18a.52.52,0,0,0,.26.51.63.63,0,0,0,.65,0,.58.58,0,0,0,.22-.58l.18,0a.76.76,0,0,1-.3.75A.82.82,0,0,1,10,7.66Zm0-.37a.55.55,0,0,1-.5-.36l.16-.08c.13.29.34.28.45.24a.29.29,0,0,0,.21-.17l.17,0c0,.14-.12.31-.33.37A.41.41,0,0,1,9.94,7.29Z"/><path class="cls-3" d="M10.35,9.1A.31.31,0,0,1,10.19,9,.38.38,0,0,1,10,8.81V8.76a1.28,1.28,0,0,1,0-.28c0-.35,0-.63.31-.65h0a.34.34,0,0,1,.33.34v.59a.33.33,0,0,1-.26.33Zm0-1.09c-.12,0-.14.08-.14.47a1,1,0,0,0,0,.25v0s.11.14.15.14a.17.17,0,0,0,.11-.16V8.17S10.42,8,10.32,8Z"/><path class="cls-3" d="M9.5,9.12a.21.21,0,0,1-.12,0,.38.38,0,0,1-.13-.3v0a1,1,0,0,1,0-.26c0-.36,0-.63.3-.65h0a.33.33,0,0,1,.32.33v.21a3.38,3.38,0,0,1,0,.45.32.32,0,0,1-.24.27Zm0-1.1c-.12,0-.14.07-.14.47a.53.53,0,0,0,0,.2.2.2,0,0,1,0,.09.19.19,0,0,0,.05.15h.06c.08,0,.11,0,.12-.12a2.91,2.91,0,0,0,0-.42,1.62,1.62,0,0,1,0-.22A.15.15,0,0,0,9.52,8Z"/><polygon class="cls-3" points="9.61 6.41 9.27 6.41 9.39 6.16 9.47 6.2 9.41 6.32 9.61 6.32 9.61 6.41"/><path class="cls-8" d="M2.84,8.09,3,7.71a.5.5,0,0,0,0-.45A.58.58,0,0,0,2.66,7a.51.51,0,0,0-.42,0A.48.48,0,0,0,2,7.31l-.15.41,0,0c0-.1.05-.11.15-.07l.69.25c.09,0,.1,0,.06.15Zm-.78-.58C2,7.49,2,7.48,2,7.44l0-.1a.31.31,0,0,1,.19-.21.58.58,0,0,1,.38,0,.47.47,0,0,1,.28.2.33.33,0,0,1,0,.32l0,.07s0,0-.1,0Z"/><path class="cls-4" d="M3.59,6.36,3.4,6.2l0,.06c.13.11.13.13.09.2l-.09.18s0,0-.08,0l-.34-.18L3,6.33c0-.06,0-.06.17,0l0,0-.32-.17,0,0c.12.07.13.08.1.14l-.07.13-.31-.16s-.06,0,0-.08l.07-.13c0-.08.05-.09.21,0l0-.06-.23-.08-.29.57,0,0c0-.09.07-.09.16,0l.64.34c.1.05.1.06.05.15l0,0Z"/><path class="cls-8" d="M3.65,5.94c.08.06.09.07,0,.15l0,0L4,5.8l-.05,0c-.06.1-.08.1-.16,0l-.25-.18,0,0a.55.55,0,0,0,.11-.29.32.32,0,0,0-.14-.21.28.28,0,0,0-.24,0,.47.47,0,0,0-.21.18l-.2.3,0,0c.06-.08.07-.08.16,0ZM3.1,5.26a.2.2,0,0,1,.13-.1.25.25,0,0,1,.18,0,.27.27,0,0,1,.12.16.28.28,0,0,1,0,.17l0,.06-.31-.22c-.06,0-.06,0-.05-.08Z"/><path class="cls-8" d="M4.34,4.79l.17.08c.07,0,.09,0,0,.11l0,0,.22-.24,0,0s-.06,0-.14,0l-.91-.39-.06.07.51.86c0,.06,0,.08,0,.12l0,0,.16-.18,0,0c-.05.06-.07,0-.12,0l-.1-.15Zm-.07,0L4.07,5,3.8,4.56h0Z"/><path class="cls-8" d="M5,3.91a.3.3,0,0,0,.07-.19A.22.22,0,0,0,5,3.54a.24.24,0,0,0-.22-.1.4.4,0,0,0-.26.13l-.29.24,0,0c.08-.07.1-.07.17,0l.46.56c.07.08.07.1,0,.16l0,0,.29-.24,0,0c-.07.06-.09.06-.16,0l-.2-.25L4.93,4l.51.21.17-.15,0,0s-.07,0-.17,0Zm-.45-.15c0-.06-.06-.07,0-.09l0,0a.21.21,0,0,1,.31,0A.27.27,0,0,1,5,3.82.28.28,0,0,1,4.87,4L4.81,4Z"/><path class="cls-4" d="M5.64,2.88l.13-.09c.08,0,.09,0,.21.09l0,0-.16-.2-.67.42.11.23.05,0c-.06-.17-.06-.18,0-.23L5.51,3l.44.7c0,.09,0,.11,0,.17l0,0,.37-.23,0,0c-.11.07-.12.06-.18,0Z"/><path class="cls-4" d="M7.05,2.12,7.1,3h0l-.59-.68-.25.11,0,.05c.09,0,.1,0,.14.06l.27.68c0,.1,0,.11-.05.15l0,.05.26-.11,0,0c-.08,0-.1,0-.14-.07l-.27-.67h0l.63.72,0,0,0-1h0L7.4,3c0,.09,0,.11-.05.14l0,.05L7.71,3l0,0c-.09,0-.11,0-.14-.06l-.28-.68c0-.1,0-.11.06-.15l0-.05Z"/><path class="cls-4" d="M8.6,2.78l0-.24H8.52c0,.17,0,.19-.09.21l-.2.05s0,0-.06-.06l-.09-.38.15,0c.06,0,.07,0,.11.12H8.4l-.09-.36-.06,0c0,.13,0,.15,0,.16l-.15,0L8,2c0-.05,0-.06,0-.08l.15,0c.08,0,.09,0,.17.13L8.4,2l-.1-.22-.62.16L7.7,2c.1,0,.11,0,.14.08L8,2.75c0,.1,0,.12-.08.14V3Z"/><path class="cls-8" d="M9.05,1.64l-.27,0v.05c.11,0,.12,0,.13.11L9,2.55c0,.11,0,.12-.1.13v0l.3,0V2.65c-.1,0-.11,0-.12-.1L9,1.79H9l.66.89h.11l-.08-.91c0-.11,0-.12.1-.13v0l-.3,0v0c.11,0,.12,0,.13.11l.06.7h0Z"/><path class="cls-4" d="M10.65,1.69h.16c.08,0,.1,0,.12.19H11l0-.26-.78,0,0,.25h.06c0-.17.06-.18.14-.17h.16l-.06.83c0,.1,0,.11-.14.1v.06l.43,0V2.64c-.13,0-.13,0-.12-.12Z"/><path class="cls-8" d="M12.16,3a.47.47,0,0,0,.39,0,.63.63,0,0,0,.25-.36.59.59,0,0,0,0-.46A.5.5,0,0,0,12.49,2a.52.52,0,0,0-.37,0,.57.57,0,0,0-.27.37.6.6,0,0,0,0,.44.43.43,0,0,0,.31.24Zm.31-1a.3.3,0,0,1,.19.16.59.59,0,0,1,0,.41.71.71,0,0,1-.21.34.27.27,0,0,1-.25,0,.34.34,0,0,1-.2-.17.7.7,0,0,1,0-.4A.58.58,0,0,1,12.21,2a.28.28,0,0,1,.25,0Z"/><path class="cls-4" d="M13.7,2.82l-.06,0c-.06.11-.08.12-.14.09l-.13-.06.15-.32s0-.06.08,0l.15.07c.07,0,.08,0,.05.21l.06,0,.06-.24-.58-.27,0,0c.09.05.09.06,0,.16l-.31.66c0,.09-.06.1-.15,0l0,.05.36.17,0-.05c-.11,0-.11-.06-.07-.16l.15-.3.13.06s.06,0,0,.17l.06,0Z"/><path class="cls-4" d="M14.84,4.12l-.06,0c-.13.12-.15.12-.22.07l-.13-.1s0,0,0-.08l.45-.61c.06-.09.08-.1.16,0l0-.05-.31-.22,0,0c.08.06.09.08,0,.16l-.42.59c-.07.09-.08.09-.16,0l0,.05.51.37Z"/><path class="cls-8" d="M15.48,4.62l-.09.17c0,.07-.05.09-.11,0l0,0,.23.23,0,0s0,0,0-.14L15.94,4,15.88,4,15,4.42c-.07,0-.09,0-.12,0l0,0,.17.17,0,0c-.06-.06-.05-.07,0-.12l.16-.09Zm0-.06-.21-.22.44-.24h0Z"/><path class="cls-8" d="M16.43,4.63c.06.08.06.1,0,.16l-.58.44c-.08.06-.1.06-.16,0l0,0,.24.32c.09.12.16.17.24.18a.27.27,0,0,0,.22-.07.22.22,0,0,0,.1-.18.4.4,0,0,0-.08-.23h0a.37.37,0,0,0,.2.11.24.24,0,0,0,.18,0,.23.23,0,0,0,.09-.18.43.43,0,0,0-.12-.26l-.22-.29Zm.11.25s.05,0,.07,0l0,.05a.17.17,0,0,1,0,.14.24.24,0,0,1-.25.17.24.24,0,0,1-.14-.09l0-.06Zm-.34.26.06.08a.21.21,0,0,1,.06.17.19.19,0,0,1-.09.15.32.32,0,0,1-.18.07.17.17,0,0,1-.13-.08l-.05-.07s0,0,0-.09Z"/><path class="cls-8" d="M16.47,6.52a.45.45,0,0,0,.3.26.68.68,0,0,0,.43-.09.59.59,0,0,0,.3-.34.55.55,0,0,0-.33-.61.57.57,0,0,0-.46.08.59.59,0,0,0-.3.31.47.47,0,0,0,.06.39ZM17.39,6a.33.33,0,0,1,0,.26.58.58,0,0,1-.3.27.59.59,0,0,1-.38.1.31.31,0,0,1-.21-.15.34.34,0,0,1,0-.26A.7.7,0,0,1,16.79,6a.56.56,0,0,1,.39-.1.29.29,0,0,1,.21.15Z"/><path class="cls-8" d="M17.49,7.53a.31.31,0,0,0,.14.14.23.23,0,0,0,.2,0A.27.27,0,0,0,18,7.51a.51.51,0,0,0,0-.29l-.12-.36h-.06c0,.1,0,.12-.07.15L17,7.26c-.1,0-.11,0-.15-.07h-.05l.13.37.05,0c0-.1,0-.11.07-.14l.3-.11,0,.1L17,7.81l.07.21.05,0c0-.06,0-.08.06-.16Zm.3-.37c.07,0,.08,0,.09,0l0,.07a.24.24,0,0,1,0,.17.21.21,0,0,1-.13.11.21.21,0,0,1-.19,0,.24.24,0,0,1-.11-.16l0-.08Z"/><path class="cls-4" d="M2.27,11.91a.38.38,0,0,1-.24,0,.24.24,0,0,1-.11-.16.2.2,0,0,1,0-.19.33.33,0,0,1,.22-.11l.52-.1c.11,0,.12,0,.14.08h.05L2.82,11h0c0,.1,0,.11-.1.13l-.52.1c-.15,0-.24.07-.29.16a.45.45,0,0,0,0,.29.32.32,0,0,0,.43.26l.54-.1c.1,0,.12,0,.13.08H3l-.06-.28h0c0,.09,0,.1-.09.12Z"/><path class="cls-4" d="M3.14,12.36,3,12.11l0,0c0,.1,0,.11-.07.15l-.68.26c-.1,0-.11,0-.15-.06l0,0,.11.28.05,0c0-.1,0-.11.07-.15l.7-.27H3l-.67.88,0,.1L3.2,13c.09,0,.11,0,.14.06l.05,0-.11-.28,0,0c0,.1,0,.11-.06.15l-.66.25h0Z"/><path class="cls-4" d="M2.73,13.71c-.09,0-.11,0-.16-.05l0,0,.19.35,0,0c0-.09,0-.11,0-.16l.65-.34c.09-.05.1-.05.15.05l0,0-.18-.35-.05,0c.05.1.05.11,0,.16Z"/><path class="cls-4" d="M3.91,14.1l.09.13c0,.08,0,.09-.08.21l0,.06.2-.17-.43-.66-.23.11,0,.05c.16-.07.18-.06.22,0l.09.13-.7.46c-.09.05-.1.05-.17,0l0,0,.23.35,0,0c-.07-.1-.06-.12,0-.17Z"/><path class="cls-4" d="M3.86,15.67l.22-.12,0-.05c-.15.07-.17.07-.23,0l-.13-.15s0,0,0-.08L4,15l.09.12c.05,0,.05.06-.06.15l0,.06.28-.24,0,0c-.1.09-.12.09-.17,0L4.06,15l.26-.22s.06,0,.09,0l.1.11c0,.07.06.08,0,.22l0,.05L4.66,15l-.41-.49,0,0c.07.08.07.09,0,.16l-.55.47c-.08.07-.1.07-.17,0l0,0Z"/><path class="cls-8" d="M4.1,15.93l.3.27a.56.56,0,0,0,.42.17.68.68,0,0,0,.53-.6.53.53,0,0,0-.2-.35l-.33-.29,0,0c.09.07.09.09,0,.17l-.49.54c-.07.08-.09.08-.17,0Zm.84-.51c0-.05,0-.05.08,0l.08.07a.32.32,0,0,1,.12.26.62.62,0,0,1-.17.33.56.56,0,0,1-.3.19.33.33,0,0,1-.3-.1l-.06,0s0-.05,0-.1Z"/><path class="cls-4" d="M6.42,16.62a2,2,0,0,1,.09-.2.76.76,0,0,0-.16-.14.35.35,0,0,0-.23-.05.26.26,0,0,0-.17.12.28.28,0,0,0,0,.15.87.87,0,0,0,.08.25,1.43,1.43,0,0,1,.06.21.27.27,0,0,1,0,.12.28.28,0,0,1-.12.1.2.2,0,0,1-.13,0c-.1-.06-.12-.13-.07-.3l-.07,0a.8.8,0,0,1-.08.21.69.69,0,0,0,.18.16.35.35,0,0,0,.27.05.26.26,0,0,0,.16-.13.36.36,0,0,0,0-.19,1,1,0,0,0-.08-.25.58.58,0,0,1-.06-.2.17.17,0,0,1,0-.1.13.13,0,0,1,.08-.07.15.15,0,0,1,.13,0c.1.06.1.11.05.26Z"/><path class="cls-4" d="M7.13,16.78l.14.06c.08,0,.09.05.05.22l.06,0,.07-.25-.72-.32-.13.22.05,0c.1-.15.12-.15.2-.12l.14.07-.34.75c0,.1-.05.11-.17.06l0,0,.39.17,0-.05c-.12-.05-.12-.07-.08-.16Z"/><path class="cls-8" d="M7.82,17.73v.19c0,.08,0,.1-.09.08v.05l.3.09,0-.05S8,18.06,8,18l0-1-.08,0-.56.83c0,.06-.07.06-.11,0l0,.05L7.4,18l0-.05c-.08,0-.08,0,0-.12l.1-.15Zm0-.07-.29-.09.27-.42h0Z"/><path class="cls-4" d="M8.85,17.28l.15,0c.08,0,.1,0,.1.2h.06v-.25l-.77-.14-.08.25h.06c.06-.17.07-.17.16-.16l.15,0-.14.82c0,.1,0,.11-.15.09v.05l.42.07v-.05c-.12,0-.13,0-.11-.14Z"/><path class="cls-4" d="M10,18.36l0-.24H10c-.05.16-.06.17-.15.17h-.2s0,0,0-.06v-.39h.16c.06,0,.07,0,.07.15h.06l0-.37H9.83c0,.13,0,.15-.08.15H9.6v-.35c0-.05,0-.06.05-.06h.16c.08,0,.1,0,.13.18H10l0-.24-.64,0v.05c.1,0,.11,0,.11.12l0,.73c0,.11,0,.12-.12.12v.05Z"/><path class="cls-4" d="M10.78,17.49c0-.08,0-.16,0-.22a.44.44,0,0,0-.21,0,.29.29,0,0,0-.21.09.23.23,0,0,0-.07.19.24.24,0,0,0,0,.14.8.8,0,0,0,.21.17l.17.13a.28.28,0,0,1,0,.12.19.19,0,0,1,0,.15.23.23,0,0,1-.12.06c-.11,0-.17,0-.23-.21l-.06,0a1.14,1.14,0,0,1,.05.23.63.63,0,0,0,.24,0,.33.33,0,0,0,.25-.11.36.36,0,0,0,.06-.2.33.33,0,0,0-.07-.18,1,1,0,0,0-.22-.16.72.72,0,0,1-.15-.13.17.17,0,0,1,0-.21.13.13,0,0,1,.11-.05c.12,0,.15,0,.19.18Z"/><path class="cls-8" d="M12.22,18.08a.46.46,0,0,0,.32-.23.61.61,0,0,0,0-.43A.58.58,0,0,0,12.3,17a.47.47,0,0,0-.37,0,.49.49,0,0,0-.31.21.63.63,0,0,0,0,.46.64.64,0,0,0,.23.37.53.53,0,0,0,.4,0Zm-.28-1a.34.34,0,0,1,.26,0,.85.85,0,0,1,.2.75.32.32,0,0,1-.46.12.64.64,0,0,1-.19-.35.61.61,0,0,1,0-.4.29.29,0,0,1,.2-.16Z"/><path class="cls-4" d="M13.24,16.92l-.06,0c.05.11,0,.14,0,.16l-.13.06-.14-.33c0-.06,0-.07,0-.09l.15-.06c.07,0,.09,0,.19.11l.06,0-.13-.2-.59.25,0,.05c.09,0,.11,0,.15.06l.28.67c.05.1,0,.11,0,.15l0,.05.37-.15,0,0c-.12,0-.13,0-.17-.06l-.13-.31.13-.06c.06,0,.07,0,.13.11l.06,0Z"/><path class="cls-8" d="M14.48,16.65l.15.12c.06.05.07.07,0,.12l0,0,.27-.17,0-.05c-.05,0-.07,0-.14,0L14,16.07l-.08.05.28,1c0,.07,0,.09,0,.12l0,.05.2-.14,0,0c-.07,0-.08,0-.11-.06l-.06-.17Zm-.06,0-.25.16L14,16.29h0Z"/><path class="cls-4" d="M15.08,15.2l.37.81h0l-.79-.42-.2.18,0,0c.08-.07.09-.06.16,0l.5.54c.07.07.08.09,0,.16l0,0,.21-.2,0,0c-.07.07-.08.06-.15,0l-.5-.53h0l.85.45,0,0-.39-.87h0l.5.53c.07.08.07.09,0,.16l0,0,.27-.26,0,0c-.07.07-.09.07-.16,0l-.49-.53c-.08-.08-.08-.09,0-.16l0,0Z"/><path class="cls-4" d="M16.65,15l-.16-.19,0,.05c.1.13.1.15.05.22l-.13.15s0,0-.08,0L16,15l.09-.12c.05-.05.06-.05.17,0l0,0L16,14.66l0,.05c.1.08.1.1.06.15l-.09.12-.27-.22c-.05,0-.05,0,0-.08l.1-.13c.05-.06.06-.07.21,0l0-.06-.21-.11-.4.49,0,0c.07-.08.09-.08.17,0l.56.46c.09.07.09.08,0,.16l.05,0Z"/><path class="cls-8" d="M16.69,14.06a.35.35,0,0,0,0-.2.29.29,0,0,0-.12-.16.24.24,0,0,0-.23,0,.54.54,0,0,0-.22.21l-.2.32.05,0c.06-.09.07-.09.16,0l.62.38c.09.06.09.07,0,.16l0,0,.2-.32,0,0c-.06.09-.07.09-.16,0l-.27-.17.05-.09.56,0L17.3,14l-.05,0c0,.05-.05.06-.16.06Zm-.48,0c-.06,0-.07-.05-.06-.08l0-.06a.21.21,0,0,1,.13-.11.17.17,0,0,1,.17,0,.22.22,0,0,1,.12.15.25.25,0,0,1-.05.18l0,.08Z"/><path class="cls-4" d="M17.3,13.64c.09,0,.1.06.05.16l0,0,.17-.36-.05,0c-.05.1-.06.1-.16.06l-.66-.31c-.09,0-.1-.06-.05-.16l0,0-.17.36.05,0c.05-.1.06-.1.16-.06Z"/><path class="cls-4" d="M17.68,12.39a.36.36,0,0,1,.12.16.21.21,0,0,1,0,.19.26.26,0,0,1-.18.17.63.63,0,0,1-.4,0,.6.6,0,0,1-.32-.24.29.29,0,0,1,0-.24.24.24,0,0,1,.09-.13.33.33,0,0,1,.23,0v-.07l-.25,0a.36.36,0,0,0-.07.1.61.61,0,0,0-.07.14.5.5,0,0,0,0,.38.56.56,0,0,0,.34.27.62.62,0,0,0,.46,0,.42.42,0,0,0,.23-.27.36.36,0,0,0,0-.27.53.53,0,0,0-.15-.19Z"/><path class="cls-8" d="M17.84,11.48l.19,0c.08,0,.1,0,.08.08h.05l.07-.31-.06,0s0,.07-.12.08l-1,.14v.09l.88.47c.06,0,.07.05.06.1h.06l0-.24h-.05c0,.08,0,.09-.12,0l-.16-.08Zm-.07,0-.06.3-.45-.23h0Z"/><path class="cls-4" d="M2,9.5a.13.13,0,1,1,.26,0A.13.13,0,1,1,2,9.5"/><path class="cls-9" d="M2.11,9.66A.16.16,0,0,1,2,9.5a.15.15,0,0,1,.15-.15.16.16,0,0,1,.16.15A.16.16,0,0,1,2.11,9.66Zm0-.27a.11.11,0,1,0,.11.11A.11.11,0,0,0,2.11,9.39Z"/><path class="cls-4" d="M17.71,9.44a.13.13,0,0,1,.26,0,.13.13,0,1,1-.26,0"/><path class="cls-9" d="M17.84,9.6a.16.16,0,0,1-.16-.16.16.16,0,0,1,.16-.15.15.15,0,0,1,.15.15A.15.15,0,0,1,17.84,9.6Zm0-.27a.11.11,0,0,0-.11.11.11.11,0,1,0,.22,0A.11.11,0,0,0,17.84,9.33Z"/><path class="cls-3" d="M8.2,9.57H8v0c0-.15,0-.38.32-.39h.47c.06,0,.06,0,.08,0s.12-.18.37-.18h.52v.22H9.22c-.14,0-.15,0-.18.07a.27.27,0,0,1-.27.15H8.3c-.1,0-.1,0-.1.17Zm3.73,0H11.7v0c0-.17,0-.17-.1-.17h-.47a.27.27,0,0,1-.27-.15s0-.07-.17-.07h-.53V8.92h.53c.24,0,.31.09.36.18s0,0,.08,0h.48c.32,0,.32.24.32.39Z"/><rect class="cls-5" x="10.21" y="8.53" width="0.22" height="0.39"/><path class="cls-5" d="M10.45,9h-.27V8.51h.27Zm-.22,0h.18V8.56h-.18Z"/><rect class="cls-5" x="9.41" y="8.53" width="0.22" height="0.39"/><path class="cls-5" d="M9.65,8.94H9.38V8.51h.27Zm-.22,0h.18V8.55H9.43Z"/><path class="cls-3" d="M9.67,9.09H9.58V8.61h.09Zm.79,0h-.09V8.61h.09Zm-.2,0h-.09V8.61h.09Zm-.79,0H9.38V8.61h.09Z"/><polygon class="cls-3" points="9.39 9.05 9.68 9.07 9.83 9.16 9.87 9.48 9.72 9.62 9.53 9.59 9.46 9.54 9.35 9.56 9.22 9.39 9.3 9.19 9.39 9.05"/><path class="cls-3" d="M9.72,9.64l-.2,0-.07,0-.11,0-.15-.19.09-.21L9.38,9l.31,0,.16.09.05.35Zm-.18-.07.17,0,.14-.12,0-.31-.14-.08-.26,0-.09.13-.08.19.11.14.11,0Z"/><path class="cls-3" d="M10.11,9.57l.2,0,.06-.13.18,0,.14-.16-.09-.2L10.41,9l-.13,0h-.2a.58.58,0,0,0-.05.11s0,.29,0,.29Z"/><path class="cls-3" d="M10.32,9.64l-.23-.05L10,9.41s0-.27,0-.29A.31.31,0,0,1,10.06,9h0l.22,0,.14,0,.2.13h0l.09.22-.15.17-.17,0Zm-.2-.09.18,0,.06-.13.18,0,.12-.13-.08-.19-.18-.12-.12,0h-.19a.29.29,0,0,0,0,.09v.29Z"/><path class="cls-5" d="M9.36,9.23c.05-.09.13-.14.17-.12s0,.12,0,.2-.13.15-.17.13,0-.12,0-.21"/><path class="cls-5" d="M10.52,9.22c0-.09-.13-.15-.17-.12s0,.11,0,.21.12.14.16.12,0-.12,0-.21"/><path class="cls-5" d="M9.63,9.37c0-.09.07-.16.1-.14s0,.09,0,.18-.07.15-.11.14,0-.09,0-.18"/><path class="cls-5" d="M10.27,9.37c0-.09-.07-.16-.11-.14s0,.09,0,.18.07.16.1.15,0-.1,0-.19"/><rect class="cls-3" x="9.91" y="11.06" width="0.27" height="0.61" transform="translate(-2.74 3.2) rotate(-15.97)"/><rect class="cls-3" x="10.05" y="11.1" width="1.34" height="0.14" transform="translate(-2.81 3.65) rotate(-17.14)"/></svg>